<svg width="20" height="20" viewBox="0 0 20 20" fill="none" xmlns="http://www.w3.org/2000/svg">
<g clip-path="url(#clip0_2_84)">
<path d="M10.6611 12.0348C15.4212 10.4881 18.5051 6.8493 17.5492 3.90727C16.5933 0.965227 11.9595 -0.165954 7.19941 1.3807C2.4393 2.92736 -0.644605 6.56616 0.311321 9.5082C1.26725 12.4502 5.90101 13.5814 10.6611 12.0348Z" fill="url(#paint0_linear_2_84)"/>
<path d="M12.8005 18.6191C17.5606 17.0724 20.6445 13.4336 19.6886 10.4916C18.7327 7.54954 14.0989 6.41835 9.33878 7.96501C4.57866 9.51166 1.49476 13.1505 2.45069 16.0925C3.40661 19.0345 8.04038 20.1657 12.8005 18.6191Z" fill="url(#paint1_linear_2_84)"/>
</g>
<defs>
<linearGradient id="paint0_linear_2_84" x1="17.3828" y1="6.71875" x2="0.488279" y2="6.71875" gradientUnits="userSpaceOnUse">
<stop stop-color="#3E3E3F" stop-opacity="0.3"/>
<stop offset="0.5" stop-color="#B4B6B8" stop-opacity="0.7"/>
<stop offset="1" stop-color="white"/>
</linearGradient>
<linearGradient id="paint1_linear_2_84" x1="19.5117" y1="13.2812" x2="2.71484" y2="13.2812" gradientUnits="userSpaceOnUse">
<stop stop-color="white"/>
<stop offset="0.5" stop-color="#B4B6B8" stop-opacity="0.7"/>
<stop offset="1" stop-color="#787B7E" stop-opacity="0.3"/>
</linearGradient>
<clipPath id="clip0_2_84">
<rect width="20" height="20" fill="white"/>
</clipPath>
</defs>
</svg>
