<svg width="44" height="15" viewBox="0 0 44 15" fill="none" xmlns="http://www.w3.org/2000/svg">
<path d="M34.5803 12.14L35.9803 11.12C36.5403 12.34 37.8203 13.08 39.1803 13.08C40.4003 13.08 41.4803 12.56 41.4803 11.42C41.4803 10.28 40.4803 10.12 38.7603 9.76C37.0403 9.38 35.2403 9 35.2403 6.86C35.2403 5 36.8603 3.7 39.0803 3.7C40.9603 3.7 42.5003 4.62 43.1203 5.86L41.8403 6.88C41.3003 5.84 40.3203 5.18 39.0003 5.18C37.8003 5.18 37.0003 5.78 37.0003 6.72C37.0003 7.7 37.9203 7.88 39.3803 8.2C41.1803 8.62 43.2403 8.98 43.2403 11.26C43.2403 13.26 41.4203 14.58 39.1803 14.58C37.2803 14.58 35.3803 13.76 34.5803 12.14Z" fill="white"/>
<path d="M26.3125 9.14C26.3125 11.52 27.5925 13 29.4525 13C30.8925 13 31.7525 12.08 32.0525 10.78L33.6525 11.52C33.1525 13.26 31.6325 14.58 29.4525 14.58C26.5325 14.58 24.5125 12.36 24.5125 9.14C24.5125 5.9 26.5325 3.7 29.4525 3.7C31.6325 3.7 33.1125 4.96 33.6125 6.7L32.0525 7.48C31.7525 6.2 30.8925 5.26 29.4525 5.26C27.5925 5.26 26.3125 6.74 26.3125 9.14Z" fill="white"/>
<path d="M22.9434 9.14C22.9434 12.38 20.9434 14.58 18.0834 14.58C15.2234 14.58 13.2234 12.38 13.2234 9.14C13.2234 5.9 15.2234 3.7 18.0834 3.7C20.9434 3.7 22.9434 5.9 22.9434 9.14ZM15.0434 9.14C15.0434 11.52 16.2434 13.04 18.0834 13.04C19.9234 13.04 21.1234 11.52 21.1234 9.14C21.1234 6.74 19.9234 5.22 18.0834 5.22C16.2434 5.22 15.0434 6.74 15.0434 9.14Z" fill="white"/>
<path d="M0 14.36V0H4.56C8.92 0 11.68 2.8 11.68 7.18C11.68 11.56 8.92 14.36 4.56 14.36H0ZM1.88 12.7H4.56C7.82 12.7 9.8 10.52 9.8 7.18C9.8 3.82 7.82 1.66 4.54 1.66H1.88V12.7Z" fill="white"/>
</svg>
